<svg id="Capa_1" data-name="Capa 1" xmlns="http://www.w3.org/2000/svg" viewBox="0 0 35 35"><defs><style>.cls-1{fill:#666;}</style></defs><path class="cls-1" d="M28.76,22.43l-1-2.66a2,2,0,0,0-1.93-1.31,2,2,0,0,0-1.56.85,1.87,1.87,0,0,0-.66-.53V4a1.94,1.94,0,0,0-1.94-1.94H8.17A2,2,0,0,0,6.22,4V28a2,2,0,0,0,2,1.95h8l3.06,2.87a.46.46,0,0,0,.5.1l8.67-3.38a.5.5,0,0,0,.32-.44l.07-6.47A.44.44,0,0,0,28.76,22.43ZM12.93,13.49a2,2,0,0,0-.52,2.32s0,.07.07.2A2.36,2.36,0,0,1,11.26,14a2.34,2.34,0,0,1,4.68,0V14A2,2,0,0,0,12.93,13.49Zm.67-2.41a2.87,2.87,0,0,0-.84,5.61l.57,1.47A4.24,4.24,0,1,1,17,16.5c-.26-.66-.49-1.21-.64-1.61a2.94,2.94,0,0,0,.15-.94A2.87,2.87,0,0,0,13.6,11.08Zm3.56,6a4.74,4.74,0,1,0-3.62,1.63c.6,1.51,1.3,3.3,1.77,4.5L14.59,25H7.48V5.36H22.37V18.61a1.44,1.44,0,0,0-.33.08,2,2,0,0,0-.87.69,2,2,0,0,0-2.31-.68,2.09,2.09,0,0,0-.83.62c-.29-.77-.59-1.54-.87-2.24C17.17,17.07,17.17,17.07,17.16,17.07Zm-9-13.72H21.69a.67.67,0,0,1,.68.68v.28H7.48V4A.69.69,0,0,1,8.17,3.35Zm0,25.3A.7.7,0,0,1,7.48,28V26.05h6.69l-.46,1.15a.48.48,0,0,0,.12.53l1,.92Zm19.57.08-8.08,3.14-2.09-2-1.36-1.26-1.49-1.4.48-1.2L15.62,25l.2-.48L16,25l.4,1.06.15.37a.48.48,0,0,0,.62.28h0a.48.48,0,0,0,.27-.62v0L17,25l-2.49-6.38-.2-.51-.5-1.29-.2-.52-.36-.92a1,1,0,0,1,1.89-.74s.12.29.29.74c.06.16.13.35.22.56.14.39.32.85.51,1.34.06.17.13.34.2.51l2.16,5.55a.48.48,0,1,0,.89-.35l-.85-2.19a.91.91,0,0,1,0-.23,1,1,0,0,1,1.89-.5l.86,2.19a.48.48,0,1,0,.89-.34s-.44-1.18-.44-1.19a1,1,0,0,1,.61-1.12l.11,0a1,1,0,0,1,1.06.33.51.51,0,0,1,.09.13l.07.15L24,21h0a.48.48,0,0,0,.45.31.47.47,0,0,0,.47-.48s0-.11,0-.12a1,1,0,0,1,1.93-.61l1,2.58Z"/></svg>