<svg id="Capa_1" data-name="Capa 1" xmlns="http://www.w3.org/2000/svg" viewBox="0 0 35 35"><defs><style>.cls-1{fill:#666;}</style></defs><path class="cls-1" d="M28.52,22.63h0a16.6,16.6,0,0,1-5.14-.82,2.07,2.07,0,0,0-2.14.5l-3,3a21.85,21.85,0,0,1-9-9l3-3a2.11,2.11,0,0,0,.52-2.14A16.38,16.38,0,0,1,11.91,6,2.1,2.1,0,0,0,9.82,3.92H4.58A2.1,2.1,0,0,0,2.49,6a25.86,25.86,0,0,0,7.62,18.4A25.88,25.88,0,0,0,28.51,32h0a2.1,2.1,0,0,0,2.09-2.1V24.72A2.1,2.1,0,0,0,28.52,22.63Zm.89,7.31a.89.89,0,0,1-.89.9h0A24.65,24.65,0,0,1,11,23.57,24.66,24.66,0,0,1,3.69,6a.91.91,0,0,1,.89-.9H9.82a.91.91,0,0,1,.89.9,17.53,17.53,0,0,0,.89,5.52.92.92,0,0,1-.23.92l-3.6,3.6.2.39A23.13,23.13,0,0,0,18.09,26.56l.39.2,3.6-3.6A.87.87,0,0,1,23,23a17.85,17.85,0,0,0,5.52.88h0a.89.89,0,0,1,.89.89Z"/><path class="cls-1" d="M16.28,4.78a13.29,13.29,0,0,1,13.26,13.3.58.58,0,0,0,.6.58.62.62,0,0,0,.6-.62A14.48,14.48,0,0,0,16.28,3.58h-.07a.57.57,0,0,0-.56.6A.63.63,0,0,0,16.28,4.78Z"/><path class="cls-1" d="M16.28,9.33A8.74,8.74,0,0,1,25,18.08a.58.58,0,0,0,.6.58A.61.61,0,0,0,26.2,18a9.93,9.93,0,0,0-9.92-9.91h-.07a.57.57,0,0,0-.56.6A.63.63,0,0,0,16.28,9.33Z"/><path class="cls-1" d="M16.28,13.8A4.24,4.24,0,0,1,20.52,18v0a.58.58,0,0,0,.6.58.62.62,0,0,0,.6-.62,5.46,5.46,0,0,0-5.51-5.44.57.57,0,0,0-.56.6A.63.63,0,0,0,16.28,13.8Z"/></svg>